<svg width="28" height="28" viewBox="0 0 28 28" fill="none" xmlns="http://www.w3.org/2000/svg">
<path d="M14 0C11.2311 0 8.52431 0.821086 6.22202 2.35943C3.91973 3.89777 2.12532 6.08427 1.06569 8.64243C0.00606596 11.2006 -0.271181 14.0155 0.269012 16.7313C0.809205 19.447 2.14258 21.9416 4.10051 23.8995C6.05845 25.8574 8.55301 27.1908 11.2687 27.731C13.9845 28.2712 16.7994 27.9939 19.3576 26.9343C21.9157 25.8747 24.1022 24.0803 25.6406 21.778C27.1789 19.4757 28 16.7689 28 14C28 10.287 26.525 6.72601 23.8995 4.1005C21.274 1.475 17.713 0 14 0ZM14 5C14.89 5 15.7601 5.26392 16.5001 5.75839C17.2401 6.25285 17.8169 6.95566 18.1575 7.77792C18.4981 8.60019 18.5872 9.50499 18.4135 10.3779C18.2399 11.2508 17.8113 12.0526 17.182 12.682C16.5527 13.3113 15.7508 13.7399 14.8779 13.9135C14.005 14.0872 13.1002 13.9981 12.2779 13.6575C11.4557 13.3169 10.7529 12.7401 10.2584 12.0001C9.76393 11.26 9.50001 10.39 9.50001 9.5C9.49869 8.90868 9.61418 8.32293 9.83986 7.77637C10.0655 7.22981 10.397 6.73321 10.8151 6.31508C11.2332 5.89695 11.7298 5.56554 12.2764 5.33986C12.8229 5.11418 13.4087 4.99868 14 5ZM22 22.92C19.807 24.9023 16.9562 25.9999 14 25.9999C11.0439 25.9999 8.19299 24.9023 6.00001 22.92V22.34C5.96214 20.9708 6.46602 19.6419 7.40221 18.6421C8.3384 17.6423 9.63128 17.0522 11 17H17C18.3625 17.0547 19.6493 17.6414 20.5841 18.6342C21.5189 19.6269 22.0273 20.9466 22 22.31V22.92Z" fill="#566885"/>
</svg>
