<svg width="26" height="20" viewBox="0 0 26 20" fill="none" xmlns="http://www.w3.org/2000/svg">
<path d="M16.0625 15.3129H14.0364V8.6875C14.0364 8.56719 13.9379 8.46875 13.8176 8.46875H12.177C12.0567 8.46875 11.9582 8.56719 11.9582 8.6875V15.3129H9.93753C9.75433 15.3129 9.65316 15.5234 9.76527 15.6656L12.8278 19.5402C12.8482 19.5664 12.8744 19.5875 12.9042 19.6021C12.9341 19.6166 12.9668 19.6242 13 19.6242C13.0332 19.6242 13.066 19.6166 13.0958 19.6021C13.1257 19.5875 13.1518 19.5664 13.1723 19.5402L16.2348 15.6656C16.3469 15.5234 16.2457 15.3129 16.0625 15.3129Z" fill="#566885"/>
<path d="M21.1867 6.02695C19.9344 2.72383 16.7434 0.375 13.0055 0.375C9.26758 0.375 6.07656 2.72109 4.82422 6.02422C2.48086 6.63945 0.75 8.775 0.75 11.3125C0.75 14.334 3.19727 16.7812 6.21602 16.7812H7.3125C7.43281 16.7812 7.53125 16.6828 7.53125 16.5625V14.9219C7.53125 14.8016 7.43281 14.7031 7.3125 14.7031H6.21602C5.29453 14.7031 4.42773 14.3367 3.78242 13.6723C3.13984 13.0105 2.79805 12.1191 2.82812 11.1949C2.85273 10.473 3.09883 9.79492 3.54453 9.22344C4.00117 8.64102 4.64102 8.21719 5.35195 8.02852L6.38828 7.75781L6.76836 6.75703C7.00352 6.13359 7.33164 5.55117 7.74453 5.02344C8.15215 4.50037 8.63499 4.04057 9.17734 3.65898C10.3012 2.86875 11.6246 2.45039 13.0055 2.45039C14.3863 2.45039 15.7098 2.86875 16.8336 3.65898C17.3777 4.0418 17.859 4.50117 18.2664 5.02344C18.6793 5.55117 19.0074 6.13633 19.2426 6.75703L19.6199 7.75508L20.6535 8.02852C22.1355 8.42773 23.1719 9.77578 23.1719 11.3125C23.1719 12.2176 22.8191 13.0707 22.1793 13.7105C21.8655 14.0262 21.4922 14.2764 21.0811 14.4468C20.6699 14.6172 20.229 14.7043 19.784 14.7031H18.6875C18.5672 14.7031 18.4688 14.8016 18.4688 14.9219V16.5625C18.4688 16.6828 18.5672 16.7812 18.6875 16.7812H19.784C22.8027 16.7812 25.25 14.334 25.25 11.3125C25.25 8.77773 23.5246 6.64492 21.1867 6.02695Z" fill="#566885"/>
</svg>
